Simulation
nRows=20
nColumns=15
endheader
time  TH_x TH_y TH_z SC_y  SC_z  SC_x  AC_y  AC_z  AC_x  GH_y  GH_z  GH_yy  EL_x  PS_y
0.0  0.000000  0.000000  0.000000  -27.97009713762862  4.560559826388393  1.8095281903341822  53.127472928274784  11.341394079855895  0.35329354398713686  -103.56594528968488  1.8019864240214571  150.87710717384599  20.745375103051217  120.000000
0.031  0.000000  0.000000  0.000000  -27.828757483025335  5.168806083089555  1.3451417019233383  52.69421988506255  11.288005190648068  0.8666738578244612  -69.63027377621599  2.5572603343669917  116.37190437462299  20.36647854854287  120.000000
0.062  0.000000  0.000000  0.000000  -27.687915699380866  5.720000867360373  0.9170655681066954  52.31192228009818  11.104429061990892  1.3402579696729842  -54.411312553492344  3.645908571256152  100.59441782436038  20.021398841661064  120.000000
0.093  0.000000  0.000000  0.000000  -27.539497415265313  6.193885224464332  0.5157167051060941  52.02061167803812  10.832402347841406  1.7565977820293444  -46.27388864562138  4.75078121875723  91.90682254172938  19.692308723884246  120.000000
0.124  0.000000  0.000000  0.000000  -27.405387721149722  6.583751206287757  0.1412731595248875  51.807758970977396  10.505469487913523  2.125401618549916  -40.830574940520286  5.801111076911677  85.895006605101  19.365907197371786  120.000000
0.155  0.000000  0.000000  0.000000  -27.28900214285293  6.8779079911893195  -0.20688970176975416  51.683680988525765  10.161273459071557  2.4475249775642554  -36.54413350161804  6.794040120297127  80.99834863396713  19.027824396663437  120.000000
0.186  0.000000  0.000000  0.000000  -27.20164336275887  7.081797024322122  -0.5277572014243991  51.62689037700008  9.837608909601743  2.733135658726278  -32.808305123214254  7.750008445623916  76.56982780571093  18.673922373244817  120.000000
0.217  0.000000  0.000000  0.000000  -27.15436492112399  7.201592141575064  -0.8217711677741864  51.62553412107067  9.56307705836199  2.9697779332845036  -29.435640475374665  8.69703042583081  72.3834357862052  18.293855547099252  120.000000
0.248  0.000000  0.000000  0.000000  -27.154159258319254  7.250730270559493  -1.0972139357766788  51.65581953584739  9.362537284459265  3.155079587834712  -26.398947666608024  9.667938914907365  68.37675403728612  17.89058020079295  120.000000
0.279  0.000000  0.000000  0.000000  -27.206538332597088  7.233743800855771  -1.35320361694529  51.69441673594443  9.248417725687696  3.283498221233088  -23.75113742002976  10.693845114478906  64.58348368576704  17.462556492870725  120.000000
0.31  0.000000  0.000000  0.000000  -27.305501855238177  7.158249462111462  -1.5938853407973677  51.72372823473627  9.227070602612734  3.358235742596712  -21.523022348255598  11.802119429345616  61.02691591592515  17.020791259341763  120.000000
0.34099999999999997  0.000000  0.000000  0.000000  -27.44439562740824  7.029829213333166  -1.8221020531178764  51.73728586542622  9.298021122114665  3.3781257865008234  -19.72316690603753  13.011217035298635  57.72095997926214  16.57175012127959  120.000000
0.372  0.000000  0.000000  0.000000  -27.612062812271237  6.854693889868596  -2.041411180098893  51.72915040859057  9.451918103941425  3.351121130454761  -18.3396077610893  14.337492866749912  54.66532537207773  16.127468037070695  120.000000
0.403  0.000000  0.000000  0.000000  -27.800286830617576  6.638175267488357  -2.2589666800376866  51.703342918027595  9.678967233376593  3.281517269263492  -17.330663330764352  15.78810883723578  51.83540769987155  15.692329313622079  120.000000
0.434  0.000000  0.000000  0.000000  -27.997053165229218  6.385258967735412  -2.4784773558736086  51.659903641714834  9.962008642497972  3.1817893894491216  -16.654815879705254  17.36983439953443  49.21018760626597  15.27327461269364  120.000000
0.46499999999999997  0.000000  0.000000  0.000000  -28.194411174979543  6.101050644720171  -2.7214775786751404  51.60512070398062  10.295964479152266  3.06558476821256  -16.257889278481326  19.081554501121722  46.757314533861134  14.869491374920031  120.000000
0.496  0.000000  0.000000  0.000000  -28.380374389267388  5.789771633403748  -3.0034840429839367  51.54101967701094  10.671030437474046  2.951621364052477  -16.095810277266924  20.92406150899632  44.45615296904477  14.482576749767544  120.000000
0.527  0.000000  0.000000  0.000000  -28.547871714190777  5.454438132583145  -3.3399256164117688  51.47251326556094  11.078005976565647  2.8492618202593634  -16.12351136720085  22.89179833049185  42.28302319117182  14.106906603156206  120.000000
0.558  0.000000  0.000000  0.000000  -28.685250157592623  5.098616962440438  -3.7425162077509526  51.40127785960708  11.5072806487138  2.7718055441129343  -16.30589483878782  24.980208449215198  40.22512541371824  13.741228983084039  120.000000
0.589  0.000000  0.000000  0.000000  -28.78659730880769  4.72456686945881  -4.219759824686474  51.326100649253505  11.95008139223211  2.7246673110447968  -16.61118361553568  27.17936603570435  38.267694590202225  13.3779217885947  120.000000
